/* XPM */
static char *axe[] = {
/* width height num_colors chars_per_pixel */
"    16    16        7            1",
/* colors */
". c None",
"h c #d0b060",
"s c #d0d0ff",
"e c #f0f0ff",
"d c #b0b0e8",
"g c #787880",
"# c #000000",
/* pixels */
"..#g..####..g#..",
".#eg###hh###ge#.",
"#essssessdsssse#",
"#essssessdsssse#",
"#essssessdsssse#",
"#essssessdsssse#",
"#essssessdsssse#",
".#eg###hh###ge#.",
"..#g..#hh#..g#..",
"......#hh#......",
"......#hh#......",
"......#hh#......",
"......#hh#......",
"......#hh#......",
"......#hh#......",
"......####......",
};
