#define axe_width 16
#define axe_height 16
static unsigned char axe_bits[] = {
   0xc8, 0x13, 0x74, 0x2e, 0x02, 0x40, 0x02, 0x40, 0x02, 0x40, 0x02, 0x40,
   0x02, 0x40, 0x74, 0x2e, 0x48, 0x12, 0x40, 0x02, 0x40, 0x02, 0x40, 0x02,
   0x40, 0x02, 0x40, 0x02, 0x40, 0x02, 0xc0, 0x03};
