/* XPM */
static char *bike[] = {
/* width height num_colors chars_per_pixel */
"    19    15        4            1",
/* colors */
". c None",
"+ c #808080",
"* c #404040",
"# c #000000",
/* pixels */
"...................",
"...................",
"..............#*...",
"......###......#...",
".......#......#+...",
"......*########....",
".....*.#.....##....",
".+###+.#....#.###+.",
"+*..*#+.#..#.*#..*+",
"#..*..#.#.#.#..#..#",
"#..***#*##..#..#..#",
"#.....#.#...#.....#",
"+*...*+..#..+*...*+",
".+###+.......+###+.",
"...................",
};
