#define bike_width 19
#define bike_height 15
static unsigned char bike_bits[] = {
   0x00, 0x00, 0x00, 0x00, 0x00, 0x00, 0xc0, 0xc1, 0x00, 0x80, 0x80, 0x00,
   0x80, 0x40, 0x00, 0xc0, 0x7f, 0x00, 0xa0, 0x60, 0x00, 0x9c, 0xd0, 0x01,
   0x32, 0x69, 0x02, 0x49, 0x95, 0x04, 0xf9, 0x93, 0x04, 0x41, 0x11, 0x04,
   0x22, 0x22, 0x02, 0x1c, 0xc0, 0x01, 0x00, 0x00, 0x00};
