/* XPM */
static char *bones-green[] = {
/* width height num_colors chars_per_pixel */
"   128   128       16            1",
/* colors */
". c #c6f8c6",
"# c #c6f8c8",
"a c #c8f9c9",
"b c #c8f9cb",
"c c #c6f8c6",
"d c #c6f8c6",
"e c #c6f8c6",
"f c #c8f8c6",
"g c #c7f7c4",
"h c #c9f7c4",
"i c #c8f7c4",
"j c #caf7c4",
"k c #c9f7c3",
"l c #caf7c3",
"m c #c9f6c2",
"n c None",
/* pixels */
"nnnf.#aaaaababbdnnnnnddcc.##bbb#.j.#c.ennnnnnnnnnnnnnnnn.baa#a####fhgkmillifnnnnnnnnndbbaaaaa##aclcc.##ababb#nnnnnnnnaa#c..ccehn",
"nnnd######aaaaannnnnncc.cc..#.##n.aabb#nnnnnnnnnnnnnnnnh#baaaaabafdgmjhmnkkljnnnnnnnk#bbaaaa#...hd#######.aa.nnnnnnngabbaa#.cdfn",
"nnf.c..#####a##lnnnnh.cccccccc.h##aabb#nnnnnnnnnnnnnnnnebbbabbbacffinkkjjijjjhnnnnnj#aabaa##...fg##..........nnnnnnn##bbbaa..cem",
"kidccc.#.#.##.cjnnnmd.ccccdcdfmcaaa#bbajnnnnnnnnnnnnnnn.bbbbbbb#cjkkjjihhggffd.cfd#ababba###..emf....c.ccccdennnnnnda#aabaa#.cej",
"mgeddcc....#.dejlggddccddddeemfc#bbaabainnnnnnnnnnnnnnn#bbbbaba#.figeggfffeee.#aaaaababaa##..dfliedcdddddefgeechndaaa#aabaa#.ceg",
"khgddccc..cccgglhdcdc.dddefhjdd.#bbbba.nnnnnnnnnnnnnnngbbbbbbaa#dnnnlgfededcc.##bbbbbaaa###.cfhlhddddddfgjjheaaaa#####abbaa#.deg",
"nmhfddccccccdfgkjfeddddeeghlhdd.#abbbadnnnnnnnnnnnnnnnebbbbbbab#gnnnnnkccdcc.#aaaabbbaaa##.cdfiiifffefgimjfd.aabaa###aabbaa#.cfj",
"nnigeedddcdeffgjmhfeeeffhhmifdd..abbb.nnnnnnnnnnnnnnnncbbbbaabbcnnnnnnnnkc...#aaabbbaaa##.ccfgiljggfgiknhed.#abbaaaa#aaabaa.cfnn",
"nnnhgeeddeeeffghgigffefgjkmhfdcc.#aa.jnnnnnnnnnnnnnnnncbbbbaaaamnnnnnnnnnnnc.##a#aaaaa#.ccceghkmjihikkjgfc.#aabbaaaaabbbaa.einnn",
"nnnngfeeegfffgghmfffgggijljgfdc.#aa.hnnnnnnnnnnnnnnnnncbbbbbbbdnnnnnnnnnnnnnne.##aaa##..ccdfgjkljjilmjgec##aaaaaaa#abbb#.ejnnnnn",
"nnnnhffeeffffgfimjhghhijmnhged..##.gnnnnnnnnnnnnnnnnnndabbbbaannnnnnnnnnnnnnnnnnhc####.ccdegjjkjijkhjged.#aabbbbaa#.cehnnnnnnnnn",
"nnnnnggfffffffghjmjiiiikjkhfdc...cinnnnnnnnnnnnnnnnnnngbbbba#.nnnnnnnnnnnnnnnnnnnnnnnfcddegjnjiggilmiedc.#aa.dgnnnnnnnnnnnnnnnnn",
"nnnnnnffffefdeggflmjlhilmjhedcc.dmnnnnnnnnnnnnnnnnnnnnnbbaaaahnnnnnnnnnnnnnnnnnnnnnnnnnnfhjmgggfehmkhec.#a.fnnnnnnnnnnnnnnnnnnnn",
"nnnnnngfffffegfegmnjhghkmjgfdc.dnnnnnnnnnnnnnnnnnnnnnnnbbaa#bnnnnnnnnnnnnnnnnnnnnnnnnnnnnkliggeeejjhec.##cknnnnnnnnnnnnnnnnnnnnn",
"nnnnnnnfggfffeddeihhggikligedd.hnnnnnnnnnnnnnnnnnnnnnnnabaa#annnnnnnnnnnnnnnnnnnnnnnnnnnnnjhfecddfmfdc.#chnnnnnnnnnnnnnnnnnnnnnn",
"nnnnnnnmfgfgffedcigeffgjfjhfeccnnnnnnnnnnnnnnnnnnnnnnnn#ba#a#nnnnnnnnnnnnnnnnnnnnnnnnnnnnnngedc..ghcdcc.ennnnnnnnnnnnnnnnnnnnnnn",
"nnnnnnnnggggefedahddfefhnljgeccnnnnnnnnnnnnnnnnnnnnnnnncbaa##nnnnnnnnnnnnnnnnnnnnnnnnnnnnnnnddc.ajdccc..innnnnnnnnnnnnnnnnnnnnnn",
"nnnnnnnnnhhiikjkgb#.ccfghhnheecnnnnnnnnnnnnnnnnnnnnnnnnfabaa#nnnnnnnnnnnnnnnnnnnnnnnnnnnnnnnffdelb##..ccnnnnnnnnnnnnnnnnnnnnnnnn",
"nnnnnnnnnnjmjmlfd.#.ccdfghmjgeelnnnnnnnnnnnnnnnnnnnnnnnnabaaannnnnnnnnnnnnnnnnnnnnnnnnnnnnnnnfekf...ccdcnnnnnnnnnnnnnnnnnnnnnnnn",
"nnnnnnnnnnnkihfdc...cddefhklhfeennnnnnnnnnnnnnnnnnnnnnnnabaaannnnnnnnnnnnnnnnnnnnnnnnnnnnnnnnnijfc.cddeeinnnnnnnnnnnnnnnnnnnnnnn",
"nnnnnnnnnnnnhfddc...ccdeehjmihgfjnnnnnnnnnnnnnnnnnnnnnnncbbbalnnnnnnnnnnnnnnnnnnnnnnnnnnnnnnnniijeeegffggnnnnnnnnnnnnnnnnnnnnnnn",
"nnnnnnnnnnnnnfdcc..cccdeegilkigfennnnnnnnnnnnnnnnnnnnnnnkabbbcnnnnnnnnnnnnnnnnnnnnnnnnnnnnnnnnnklggghgilmjnnnnnnnnnnnnnnnnnnnnnn",
"nnnnnnnnnnnnnnnhd..cccddefinligfeennnnnnnnnnnnnnnnnnnnnnnbaaa#nnnnnnnnnnnnnnnnnnnnnnnnnnnnnnnnnnjjifknjigeefnnnnnnnnnnnnnnnnnnnn",
"nnnnnnnnnnnnnnnnnnidccddefijmjhgednnnnnnnnnnnnnnnnnnnnnnndbaaadnnnnnnnnnnnnnnnnnnnnnnnnnnnnnnnnnnhhgggeedc...#.cfhlnnnnnnnnnnnnn",
"nnnnnnnnnnnnnnnnnnnnngdddhljnjhggddnnnnnnnnnnnnnnnnnnnnnnnaabaannnnnnnnnnnnnnnnnnnnnnnnnnnnnnnnnnfeeedddc.#aaabaabba##dhnnnnnnnn",
"nnnnnnnnnnnnnnnnnnnnnnnhhhllljhge..nnnnnnnnnnnnnnnnnnnnnnnababainnnnnnnnnnnnnnnnnnnnnnnnnnnnnnnnngcccc..##aaaabbbbbaa#...dknnnnn",
"nnnnnnnnnnnnnnnnnnnnnnnnnlnmmkjgec.fnnnnnnnnnnnnnnnnnnnnnndbbaa.nnnnnnnnnnnnnnnnnnnnnnnnnnnnnnnnngc...##aabbbbbaabaaa#.cccefnnnn",
"nnnnnnnnnnnnnnnnnnnnnnnnnnlnnnjhfc.#nnnnnnnnnnnnnnnnnnnnnnnbbaaannnnnnnnnnnnnnnnnnnnnnnnnnnnnnnnng..##aaabbbaaabbbbaa#.ccdfgjnnn",
"nnnnnnnnnnnnnnnnnnnnnnnnnnnhhmljjd.#nnnnnnnnnnnnnnnnnnnnnnnabbbbgnnnnnnnnnnnnnnnnnnnnnnnnnnnnnnnnf###abbabaa#aaaaabaa.cddfgillnn",
"nnnnnnnnnnnnnnnnnnnnnnnnnnnnmhmki.#adnnnnnnnnnnnnnnnnnnnnnndbbbb.nnnnnnnnnnnnnnnnnnnnnnnnnnnnnnnndabbbbbbabaaaaaa#a#.ddefgimllhn",
"nnnnnnnnnnnnnnnnnnnnnnnnnnnnkifhid.b#nnnnnnnnnnnnnnnnnnnnnnnbbabannnnnnnnnnnnnnnnnnnnnnnnnnnnnnnncabaaaaaaaa#ennnnnncdffgimmigeh",
"nnnnnnnnnnnnnnnnnnnnnnnnnnnnnnhddcbabnnnnnnnnnnnnnnnnnnnnnnnbaaaannnnnnnnnnnnnnnnnnnnnnnnnnnnnnnn.aaaaaaa#adnnnnnnnnnjgijmmihfdc",
"lnnnnnnnnnnnnnnnnnnnnnnnnnnnnnjecb##annnnnnnnnnnnnnnnnnnnnnn.baabnnnnnnnnnnnnnnnnnnnnnnnnnnnnnnnnb##a#a#a#knnnnnnnnnnnnmkljhffd.",
"imnnnnnnnnnnnnnnnnnnnnnnnnnnnmecb.c##nnnnnnnnnnnnnnnnnnnnnnnnbaa.fnnnnnnnnnnnnnnnnnnnnnnnnnnngc#bcc..##a.nnnnnnnnnnnnnnnjhhhggff",
"eccgnnnnnnnnnnnnnnnnnnnnnnnnnd.b#...#nnnnnnnnnnnnnnnnnnnnnnnnaa.hdcnnnnnnnnnnnnnnnnnnnnnnnnj.aa#..c.##acnnnnnnnnnnnnnnnnjhhhhhhj",
"fdddennnnnnnnnnnnnnnnnnnnnnnd#aa##..bnnnnnnnnnnnnnnnnnnnnnnnnn.eieedgnnnnnnnnnnnnnnnnnnnnn.b####.....bennnnnnnnnnnnnnnnnnhhiijjh",
"gedefegnnnnnnnnnnnnnnnnnnnne.abba##.annnnnnnnnnnnnnnnnnnnnnnnncehhfegennnnnnnnnnnnnnnnnnna##.......#alnnnnnnnnnnnnnnnnnnnnhiinlh",
"geeeeeffnnnnnnnnnnnnnnnnnne#abbaa###.nnnnnnnnnnnnnnnnnnnnnnnnnnflgfffddnnnnnnnnnnnnnnnndb.........adnnnnnnnnnnnnnnnnnnnnnnnikmji",
"gfefeffffgnnnnnnnnnnnnnnne#bbababa#afnnnnnnnnnnnnnnnnnnnnnnnnnnnmigffedddnnnnnnnnnnnnja#.....ccaaennnnnnnnnnnnnnnnnnnnnnnnnnllkh",
"ggfffeffeedgnnnnnnnnnnnmd#aababbbaabnnnnnnnnnnnnnnnnnnnnnnnnnnnnnjhfeeeddcennnnnnnnh#a.......aagnnnnnnnnnnnnnnnnnnnnnnnnnnnnn.kh",
"ghggfffffdc..ceknnnkhec..abbbabbbab#nnnnnnnnnnnnnnnnnnnnnnnnnnnnnnigffedd.###.def#b#.....c..bennnnnnnnnnnnnnnnnnnnnnnnnnnnnnnnli",
"ihhggggeecc.c.##aa##aa##aaababbbbabdnnnnnnnnnnnnnnnnnnnnnnnnnnnnnnnggfedc..aabbaa#.#.....c#.nnnnnnnnnnnnnnnnnnnnnnnnnnnnnnnnnnnj",
"iihhhggfedcc.##a#a#a####aaaaaaaabbbfnnnnnnnnnnnnnnnnnnnnnnnnnnnnnnnngffdc.#aaaaa#######..bgnnnnnnnnnnnnnnnnnnnnnnnnnnnnnnnnnnnnn",
"niiihigfeed...###a########a#aaaaabamnnnnnnnnnnnnnnnnnnnnnnnnnnnnnnnnnhgfdc##abaaaa#####a#nnnnnnnnnnnnnnnnnnnnnnnnnnnnnnnnnnnnnnn",
"nnkkiljhfddc.##a##..#..#.########a#nnnnnnnnnnnnnnnnnnnnnnnnnnnnnnnnnnnlhecc##abbaaaa#aadnnnnnnnnnnnnnnnnnnnnnnnnnnnnnnnnnnnnnnnn",
"nnnkkhnjhfdd..#####.cdc..c..######.nnnnnnnnnnnnnnnnnnnnnnnnnnnnnnnnnnnnngec.#ababbaab.nnnnnnnnnnnnnnnnnnnnnnnnnnnnnnnnnnnnnnnnnn",
"nnnnfgjkigedc.a###.ddeddccc.....##cnnnnnnnnnnnnnnnnnnnnnnnnnnnnnnnnnnnnnngdc.#abba#cinnnnnnnnnnnnnnnnnnnnnnnnnnnnnnnnnnnnnnnnnnn",
"nnnnmefinjhed.##a.ekhhgfdddccc...ccnnnnnnnnnnnnnnnnnnnnnnnnnnnnnnnnnnnnnnnge..#cennnnnnnnnnnnnnnnnnnnnnnnnnnnnnnnnnnnnnnnnnnnnnn",
"nnnnncdgnjlhdd.aahfgmmkheffeddcc#dejnnnnnnnnnnnnnnnnnnnnnnnnnnnnnnnnnnnnnnnheegnnnnnnnnnnnnnnnnnnnnnnnnnnnnnnnnnnnnnnnnnnnnnnnnn",
"nnnnn..dedfkjjfem##cddhkljjhgffefjkinnnnnnnnnnnnnnnnnnnnnnnnnnnnnnnnnnnnnnnninnnnnnnnnnnnnnnnnnnnnnnnnnnnnnnnnnnnnnnnnnnnnnnnnnn",
"nnnnh..ccdegijngc###cdfghilnkiiimkjllnnnnnnnnnnnnnnnnnnnnnnnnnnnnnnnnnnnnnnjjnnnnnnnnnnnnnnnnnnnnnnnnnnnnnnnnnnnnnnnnnnnnnnnnnnn",
"nnnnca...cddfeec.##.cddefgijmnmkjhgggfnnnnnnnnnnnnnnnnnnnnnnnnnnnnnnnnnnnmfddfhnnnnnnnnnnnnnnnnnnnnnnnnnnnnnnnnnnnnnnnnnnnnnnnnn",
"nnnd#a##.ccdedccc###ccddffggiiihgfffedddnnnnnnnnnnnnnnnnnnnnnnnnnnnnnnnngc#.ccddejnnnnnnnnnnnnnnnnnnnnnnnnnnnnnnnnnnnnnnnnnnnnnn",
"nj.aaa##..ccc...##....cdeeffgffffdeddcc...jnnnnnnnnnnnnnnnnnnnnnnnnnnnnd#a#.......chnnnnnnnnnnnnnnnnnnnnnnnnnnnnnnnnnnnnnnnnnnnn",
"e#abaa##....#.....#..cccddeefffeedddc...#aab#dinnnnnnnnnnnnnnnnnnnnnnd#baaaa#####..ddnnnnnnnnnnnnnnnnnnnnnnnnnnnnnnnnnnnnnnnnnnn",
"bbabaa##.###.######..ccdddeedeedccc..###aaabbba#abbaa#.cehknnnnnnnfcabbbbbaa#a####.cddennnnnnnnnnnnnnnnnnnnnnnnnnnnnnnnnnnnnnne#",
"abaaa#a#######.##....ccdcdeedeeccc...#aaabbbaaa##aa#aabbbbbbaa###ababbbbabaaaaaaa#...dddnnnnnnnnnnnnnnnnnnnnnnnnnnnnnnnnnnnnf.bb",
"abbaaa#a#a########..cccddeeeedddc...###babbaa#a###aaaaabbaabaabbbbbbbbbbbbbabaaaa###.ccdc.nnnnnnnnnnnnnnnnnnnnnnnnnnnnnnnng#bbbb",
"bbaaaaa##########..ccccdeedeedcc.c.###aabba#a####aaaaabaaaaaaaaabbbbbaaaabbbbbaba##..c....##fnnnnnnnnnnnnnnnnnnnnnnnnnnnh.bbaabb",
"bbbaaaa#####a#####cccdeeeeeeddc....###aaaabb#..c..ababbaa##aaaaababaabaabbbbbbbbaa###c.c.##aab#.hnnnnnnnnnnnnnnnnnnnnnf#aaaababb",
"bbaaaa#a###a###a#..ccefffeeeddcc..###aa#cennnnnnnnnnnf#####aaa#aaaaabaaaaabbbbbbaa###ccc.#.#aaababa.gnnnnnnnnnnnnnnnf#baaaababab",
"bbba#a#######ccejnjgflihggeeecc..###.ejnnnnnnnnnnnnnnnnl.c.#####aaa#aaaabbbb#dhnnnndcddcc.##aabbbaaaaa.emnnnnnnnnkd#baaaaaaaaabb",
"bbaa##....#.chnnnnnnnmlkigffdd...cejnnnnnnnnnnnnnnnnnnnnnkcc..#aa######aaa#dnnnnnnnnndddc.##abbaabb##.###a#.cddd.abbaaaaabababaa",
"ba###.....cgnnnnnnnnnjimjigfedcdgnnnnnnnnnnnnnnnnnnnnnnnnnnid..#a#.c.###.dlnnnnnnnnnnnnecc..#abaaa#cc.####aaaaaaabaaaaaaaaaaabbb",
"cghggfffhknnnnnnnnnnnifhkmigedflnnnnnnnnnnnnnnnnnnnnnnnnnnnnnjfegheec..cjnnnnnnnnnnnnnnnfddc##babcgfcc..####aaa#caaaaaa#aabbaaa#",
"nnnnnnnnnnnnnnnnnnnnnfdegflhfflnnnnnnnnnnnnnnnnnnnnnnnnnnnnnnnnnnnnlfghnnnnnnnnnnnnnnnnnnngecc##ec.gjgdc#.a#aabbb.#####aaaaa.eln",
"nnnnnnnnnnnnnnnnnnnnec.deglifgnnnnnnnnnnnnnnnnnnnnnnnnnnnnnnnnnnnnnnnnnnnnnnnnnnnnnnnnnnnnnheecgh.cenhec..#aabbaa#####aaa.fnnnnn",
"nnnnnnnnnnnnnnnnnhd.#..cegljggnnnnnnnnnnnnnnnnnnnnnnnnnnnnnnnnnnnnnnnnnnnnnnnnnnnnnnnnnnnnnnjjnge.ddlhecc#aaabbaa####b#ennnnnnnn",
"nnnnnnnnnnnkgc.#abbaa#.degmifgnnnnnnnnnnnnnnnnnnnnnnnnnnnnnnnnnnkhgjnnnnnnnnnnnnnnnnnnnnnnnnngfeecdgkhec.##bbbaaaabadnnnnnnnnnnn",
"nnnnnnnnnni.#aabbabaaa.ceglifennnnnnnnnnnnnnnnnnnnnnnnnnnnnnnnidccdfjnnnnnnnnnnnnnnnnnnnnnnnjedddcegklec#aaabab#cennnnnnnnnnnnnn",
"nnnnnnnnnndabbbbabbaa#.dehngednnnnnnnnnnnnnnnnnnnnnnnnnnnnnnng.#.cdegmnnnnnnnnnnnnnnnnnnnnnle.cccdehngec.aa#cennnnnnnnnnnnnnnnnn",
"nnnnnnnnniababbaaabaa#ccfjieddmnnnnnnnnnnnnnnnnnnnnnnnnnnnnng.###cdefkjnnnnnnnnnnnnnnnnnnnne..cccdfijfd.#cfnnnnnnnnnnnnnnnnnnnnn",
"nnnnnnnnncbaa####bba##.delgeccinnnnnnnnnnnnnnnnnnnnnnnnnnnng#aa##.cdgjkhnnnnnnnnnnnnnnnnnnj.#.#ccdflie..ennnnnnnnnnnnnnnnnnnnnnn",
"nnnnnnnnn#######abba##cflfdd.cgnnnnnnnnnnnnnnnnnnnnnnnnnnnm.bbaa#.cdfimhnnnnnnnnnnnnnnnnnnca###.cdgmgdcdnnnnnnnnnnnnnnnnnnnnnnnn",
"nnnnnnnnnb##....#aba#.diiedc.#ennnnnnnnnnnnnnnnnnnnnnnnnnn.babbba#.cfhkhgnnnnnnnnnnnnnnnneaaaaa#.dfhgc.ennnnnnnnnnnnnnnnnnnnnnnn",
"nnnnnnnnka#...#bcnnnecgjfdc.##dnnnnnnnnnnnnnnnnnnnnnnnnnnebbbbbba#.ddilgfgnnnnnnnnnnnnnni#baaaa##dfnfc.gnnnnnnnnnnnnnnnnnnnnnnnn",
"nnnnnnnne...c##nnnnnnnmfec##aacnnnnnnnnnnnnnnnnnnnnnnnnnn#bbaaaaba.cdlhfeennnnnnnnnnnnnncabbabaaacfkf##hnnnnnnnnnnnnnnnnnnnnnnnn",
"nnnnnnnn......nnnnnnnnndc##aa#dnnnnnnnnnnnnnnnnnnnnnnnnndbaaaaaaa#.dhffeeeennnnnnnnnnnng#bbabbbaadhg.abhnnnnnnnnnnnnnnnnnnnnnnnn",
"nnnnnnnna..cannnnnnnnnnj#.##aacnnnnnnnnnnnnnnnnnnnnnnnnn#bbaaa##aa#gjeeddccnnnnnnnnnnnn.abbbbbaabchd#aainnnnnnnnnnnnnnnnnnnnnnnn",
"nnnnnnnnb..cannnnnnnnnnn#aaabbcnnnnnnnnnnnnnnnnnnnnnnnnj#bbbaa#aacfeedddddcfnnnnnnnnnnfabbbbbbaaacd#bbbjnnnnnnnnnnnnnnnnnnnnnnnn",
"nnnnnnnna.ccdnnnnnnnnnnngabbbb.nnnnnnnnnnnnnnnnnnnnnnnngaabbab#annn.d.cdddcdnnnnnnnnnn.abbbbaba##fbbbbbmnnnnnnnnnnnnnnnnnnnnnnnn",
"nnnnnnnn#.c.nnnnnnnnnnnnhbbbba#nnnnnnnnnnnnnnnnnnnnnnnni#.#abab.nnma##ccddeegnnnnnnnndbbbaaaa##.gb##aaannnnnnnnnnnnnnnnnnnnnnnnn",
"nnnnnnnn..c#nnnnnnnnnnnnfbbbbaannnnnnnnnnnnnnnnnnnnnnnnn.######dnneb##.cdffhjnnnnnnncbbbaaa##c.j####aabnnnnnnnnnnnnnnnnnnnnnnnnn",
"nnnnnnne...annnnnnnnnnnnnbbbbbannnnnnnnnnnnnnnnnnnnnnnnncc.#.cdhc#aa#.cdfgjkiecknne#aabbaaa#.dk.aa##aaannnnnnnnnnnnnnnnnnnnnnnnn",
"nnnnnnn#...annnnnnnnnnnnnabbbaadnnnnnnnnnnnnnnnnnnnnnnnngccc.dhjg##.ccdfimjgfc#baaaaabbba##ccje.#baaaa#nnnnnnnnnnnnnnnnnnnnnnnnn",
"nnnnnnnb..#annnnnnnnnnnnnaaba#a.nnnnnnnnnnnnnnnnnnnnnnnnndddeklie#..dcehnhfd.aabaaaababaa#cdhdd.aabbba#nnnnnnnnnnnnnnnnnnnnnnnnn",
"nnnnnnn#...bnnnnnnnnnnnnnabaaaa#nnnnnnnnnnnnnnnnnnnnnnnnniddfhljfdddeeikfedc#aabbabbabb#a.cgkec.#ababbcnnnnnnnnnnnnnnnnnnnnnnnnn",
"nnnnnn...##bnnnnnnnnnnnnn#aaba##ennnnnnnnnnnnnnnnnnnnnnnnndefhknjggghmifdc.##abbbbabbaa##cgmfd.#aabbbainnnnnnnnnnnnnnnnnnnnnnnnn",
"nnnnnnb..#abnnnnnnnnnnnnn#baaaa#dnnnnnnnnnnnnnnnnnnnnnnnnnnffgilljjmkhec..#abbbbabbaaaa#.fmged.#aabba#nnnnnnnnnnnnnnnnnnnnnnnnnn",
"nnnnnga##baannnnnnnnnnnnn.bbbaaacnnnnnnnnnnnnnnnnnnnnnnnnnnffgijmknjged...#abaabbbbaaa.cehged.##abbbadnnnnnnnnnnnnnnnnnnnnnnnnnn",
"nnnnn..##aaannnnnnnnnnnnn#bbbaaa#nnnnnnnnnnnnnnnnnnnnnnnnnnnfghikjhfedc.#aa#cejnnnnie.cflgdd.###aaba#jnnnnnnnnnnnnnnnnnnnnnnnnnn",
"nnnnnaaaaab#nnnnnnnnnnnnn#aaabaa#nnnnnnnnnnnnnnnnnnnnnnnnnnnnghiihedcc##a#dnnnnnnnnnnnnlied..#aaaabadnnnnnnnnnnnnnnnnnnnnnnnnnnn",
"nnnncaaaabb#nnnnnnnnnnnnn#aabaaaannnnnnnnnnnnnnnnnnnnnnnnnnnngghkedcc.aabdnnnnnnnnnnnnnnfc..##abaaa.jnnnnnnnnnnnnnnnnnnnnnnnnnnn",
"nnnn#bababb.nnnnnnnnnnnnn#aabbaaannnnnnnnnnnnnnnnnnnnnnnnnnnnngihdd.#abb#nnnnnnnnnnnnnnng..#aabaaaaennnnnnnnnnnnnnnnnnnnnnnnnnnn",
"nnnjabbabbb.nnnnnnnnnnnnn.aaaaaaajnnnnnnnnnnnnnnnnnnnnnnnnnnnnnlme.aaabadnnnnnnnnnnnnnnnn.#aabbbbacnnnnnnnnnnnnnnnnnnnnnnnnnnnnn",
"nnneaababab.nnnnnnnnnnnnn.a##aabannnnnnnnnnnnnnnnnnnnnnnnnnnnnnnhc#bbabbinnnnnnnnnnnnnnnn#aabbbbacinnnnnnnnnnnnnnnnnnnnnnnnnnnnn",
"nnnd##aabaa.nnnnnnnnnnnnnca###aaannnnnnnnnnnnnnnnnnnnnnnnnnnnnnnnaaabaa#nnnnnnnnnnnnnnnnncaaababannnnnnnnnnnnnnnnnnnnnnnnnnnnnnn",
"nnne#####c##nnnnnnnnnnnnne#..ccck##.fnnnnnnnnnnnnnnnnnnnnnnnnied####aaacnnnnnnnnnnnnnnnnncaabbab.nnnnnnnnnnnnnnnnnnnnnnnnnnnnnnn",
"nnnlcc..cccchnnnnnnnnnnnni.cdefj.bbaa#cnnnnnnnnnnnnnnnnnnnnkc.#ba.###aafnnnnnnnnnnnnnnnnndbbaaba.nnnnnnnnnnnnnnnnnnnnnnnnnnnnnnn",
"nnnndcddcddddnnnnnnnnnnnnneegngc#baaaa##.gnnnnnnnnnnnnnnnnd#bbbbaa##aabnnnnnnnnnnnnnnnnnndbabaa#.jnnnnnnnnnnnnnnnnnnnnnnnnnnnnnn",
"nnnnkeeedeeeeknnnnnnnnnnnnkiifd..aaaaaa####knnnnnnnnnnnneabbabbbaa#aaa.nnnnnnnnnnnnnnnnnndbbbba##ennnnnnnnnnnnnnnnnnnnnnnnnnnnnn",
"nnnnngfffgggkeennnnnnnnnnnnke..#abaabaaaaaa#acknnnnnne#bbbbbbabba#aaabhnnnnnnnnnnnnnnnnnncbbbaa##dnnnnnnnnnnnnnnnnnnnnnnnnnnnnnn",
"nnnnnnhhhiimjfeddnnnnnnnnnnnne.#abbbbabbaaabaaaabbaaaaaaaaabbbbbbaaaa.nnnnnnnnnnnnnnnnnnncbbbbaa#cnnnnnnnnnnnnnnnnnnnnnnnnnnnnnn",
"nnnnnnnjklmkhfedc.cjnnnnnnnnnnnnnfc#aabbbbbbbaa#####a##abaabbbbbbabaamnnnnnnnnnnnnnnnnnnn.bbbaabacnnnnnnnnnnnnnnnnnnnnnnnnnnnnnn",
"nnnnnnnnkinigfeedddefnnnnnnnnnnnnnnnnne#abaabaaa#aaaaaababbbbbbbabaaennnnnnnnnnnnnnnnnnnn#babbbbadnnnnnnnnnnnnnnnnnnnnnnnnnnnnnn",
"nnnnnnnnnkkigfededefjlnnnnnnnnnnnnnnnnnnnne.baa###a#abaababbaaaaaa#dnnnnnnnnnnnnnnnnnnnnn#abbbbbagnnnnnnnnnnnnnnnnnnnnnnnnnnnnnn",
"nnnnnnnnnnigfededegjkffnnnnnnnnnnnnnnnnnnnnnnnld.#aababbbbbaaaaab#ennnnnnnnnnnnnnnnnnnnnnabbbbbbahnnnnnnnnnnnnnnnnnnnnnnnnnnnnnn",
"nnnnnnnnnnngeeeddfimhecnnnnnnnnnnnnnnnnnnnnnnnnnnnnnnid#aaaaaaa.cinnnnnnnnnnnnnnnnnnnnnnibaaabba#nnnnnnnnnnnnnnnnnnnnnnnnnnnnnnn",
"nnnnnnnnnnnnieddcglhe.#hnnnnnnnnnnnnnnnnnnnnnnnnnnnnnnnnnnhfefgnnnnnnnnnnnnnnnnnnnnnnnnnebabbbbb.nnnnnnnnnnnnnnnnnnnnnnnnnnnnnnn",
"nnnnnnnnnnnnnneddmie.a#dnnnnnnnnnnnnnnnnnnnnnnnnnnnnnnnnnnnnnnnnnnnnnnnnnnnnnnnnnnnnnnnncabaababdnnnnnnnnnnnnnnnnnnnnnnnnnnnnnnn",
"nnnnnnnnnnnnnnnndig.#aacnnnnnnnnnnnnnnnnnnnnnnnnnnnnnnnnnnnnnnnnnnnnnnnnnnnnnnnnnnnnnnnn.bbabbaahnnnnnnnnnnnnnnnnnnnnnnnnnnnnnnn",
"nnnnnnnnnnnnnnnnnn.aabb.nnnnnnnnnnnnnnnnnnnnnnnnnnnnnnnnnnnnnnnnnnnnnnnnnnnnnnnnnnnnnnnn.bbbaaa.nnnnnnnnnnnnnnnnnnnnnnnnnnnnnnnn",
"nnnnnnnnnnnnnnnnnnbabbb#nnnnnnnnnnnnnnnnnnnnnnnnnnnnnnnnnnnnnnnnnnnnnnnnnnnnnnnnnnnnnnnn.bbbbbbcnnnnnnnnnnnnnnnnnnnnnnnnnnnnnnnn",
"nnnnnnnnnnnnnnnnnna#aab#nnnnnnnnnnnnnnnnnnnnnnnnnnnnnnnnnnnnnnnnnnnnnnnnnnnnnnnnnnnnnnnn#bbbbabennnnnnnnnnnnnnnnnnnnnnnnnnnnnnnn",
"nnnnnnnnnnnnnnnnnda#aabannnnnnnnnnnnnnnnnnnnnnnnnnnnnnnnnnnnnnnnnnnnnnnnnnnnnnnnnnnnnnnnabbbaa#cnnnnnnnnnnnnnnnnnnnnnnnnnnnnnnnn",
"nnnnnnnnnnnnnnnndba#aabbnnnnnnnnnnnnnnnnnnnnnnnnnnnnnnnnnnnnnnnnnnnnnnnnnnnnnnnnnnnnnnnmabbaa##cnnnnnnnnnnnnnnnnnnnnnnnnnnnnnnnn",
"nnnnnnnnnnnnnnndaaaababannnnnnnnnnnnnnnnnnnnnnnnnnnnnnnnnnnnnnnnnnnnnnnnnnnnnnnnnnnnnnngabaaa#.cfnnnnnnnnnnnnnnnnnnnnnnnnnnnnnnn",
"nnnnnnnnnnnnnkcab#aababannnnnnnnnnnnnnnnnnnnnnnnnnnnnnnnnnnnnnnnnnnnnnnnnnnnnnnnnnnnnnnebbaa#.ccennnnnnnnnnnnnnnnnnnnnnnnnnnnnnn",
"nnnnnnnnnnnnf#abaaaabbaalnnnnnnnnnnnnnnnnnnnnnnnnnnnnnnnnnnnnnnnnnnnnnnnnnnnnnnnnnnnnnndaaaaa..cejnnnnnnnnnnnnnnnnnnnnnnnnnnnnnn",
"nnnnnnnnnnnf#bbbbbbbaa##gnnnnnnnnnnnnnnnnnnnnnnnnnnnnnnnnnnnnnnnnnnnnnnnnnnnnnnnnnnnnnncaaaa##.ceilgjkjhgfeeddddeknnnnnnnnnnnnnn",
"nnnnnnnnnne#bbbbbbbba##.ennnnnnnnnnnnnnnnnnnnnnnnnnnnnnnnnnnnnnnghlnnnnnnnnnnnnnnnnnnnn.aa####.cchkfedc.##abbbbbabaacknnnnnnnnnn",
"nnnnnnnnnf#bbbabbbbaa#ccfnnnnnnnnnnnnnnnnnnnnnnnnnnnnnnnnnnnnne.#.ccgnnnnnnnnnnnnnnnnnn#aaa###.cemjfec.##abbbbaabbba#..hnnnnnnnn",
"nnnnnnnneabaabbabbaa#.ceiijnnnnnnnnnnnnnnnnnnnnnnnnnnnnnnnnni.aa##..ddnnnnnnnnnnnnnnnnmaaa####.cehlgec.#aabbaaaaabaaa.cdennnnnnn",
"nnnnnnne#bbbababbaaa#ceijfd..cdgnnnnnnnnnnnnnnnnnnnnnnnnnnng#bbba#..cefhnnnnnnnnnnnnnnhaaa##a#.cdgkgdc.aabaaaa##abba#cdfghmnnnnn",
"nnnnnne#bbabaaabbba##ehlgd.#baabb#fnnnnnnnnnnnnnnnnnnnnnnnj#aababa#.cegimnnnnnnnnnnnnnfaaaaaa##.cfmgec##bbaa#a###ba##eiklmlnnnnn",
"nnnnnf#abbbaaaaaaaacelkgec.##abbb##cnnnnnnnnnnnnnnnnnnnnnn.aababaa#.dgijllnnnnnnnnnnnndaaa#a####cgmgd.#abbbaaaaacea.ffghhghjknnn",
"nnnnh.aabbbabaaaa.dehjged..#aaaaaa#gnnnnnnnnnnnnnnnnnnnnndbaaa#aaaa.egilmjhnnnnnnnnnnn.aaa#aaaaa#ekec.a#bbaa#afnnnnnfdddeeffgnnn",
"nnnnd#aaaabaabaaennnkgecc..aabba#ahdednnnnnnnnnnnnnnnnnniaaaaaaa#a.eghjlmkhnnnnnnnnnnl#abaaaaa#aaehdc##abbaaaennnnnne..ccdddefnn"
};
