/* XPM */
static char * bullet_xpm[] = {
"15 15 7 1",
" 	c None",
".	c #fcd200",
"X	c yellow2",
"o	c yellow",
"O	c white",
"+	c #e8b700",
"@	c yellow3",
"      .X.      ",
"    .XXXXX.    ",
"  .XXoooooXX.  ",
"  XooOOOooXXX  ",
" .XoOOOoooXXX+ ",
" XoOOOoooooXX@ ",
".XoOOooooooXX@+",
"XXXOoooooooXX@@",
".XXoooooooXXX@+",
" XXoooooooXX@@ ",
" .XXooooXXXX@+ ",
"  XXXXoXXXX@@  ",
"  .XXXXXXX@@+  ",
"    +@@@@@+    ",
"      +@+      "};
