/* XPM */
static char *dotedu[] = {
/* width height num_colors chars_per_pixel */
"    32    13        2            1",
/* colors */
". c #000000",
"# c None",
/* pixels */
"#################...############",
"##################..############",
"##################..############",
"##################..############",
"#######....####.....#...##...###",
"######..##..##..##..##..###..###",
"#####..####....###..##..###..###",
"#####..........###..##..###..###",
"#####..######..###..##..###..###",
"#####..######..###..##..###..###",
"#####...####...###..##..###..###",
"##..##...#..##..##..##...#...###",
"##..###....####......##...#...##"
};
