/* XPM */
static char * dotorg_xpm[] = {
/* width height num_colors chars_per_pixel */
"31 14 3 1",
/* colors */
" 	c None",
".	c black",
"X	c white",
/* pixels */
"                               ",
"                               ",
"                               ",
"                               ",
"       ....   ... ..   .... .. ",
"      ..  ..   ... .. ..   ..  ",
"     ..    ..  ... .. ..   ..  ",
"     ..    ..  ..     ..   ..  ",
"     ..    ..  ..     ..   ..  ",
"     ..    ..  ..     ..   ..  ",
"     ..    ..  ..      ......  ",
"  ..  ..  ..   ..          ..  ",
"  ..   ....   ....         ..X ",
"                       .....   "};
