/* XPM */
static char *dotus[] = {
/* width height num_colors chars_per_pixel */
"    21    13        2            1",
/* colors */
". c #000000",
"# c None",
/* pixels */
"#####################",
"#####################",
"#####################",
"#####################",
"####...##...###..#.##",
"#####..###..##..#..##",
"#####..###..##..##.##",
"#####..###..##...####",
"#####..###..###...###",
"#####..###..####...##",
"#####..###..##.##..##",
"##..#...#...##..#..##",
"##..##...#...#.#..###"
};
