/* XPM */
static char * edit_xpm[] = {
"27 14 5 1",
" 	c None",
".	c gray90",
"X	c #c08000",
"o	c gray70",
"O	c yellow",
"  .......................  ",
" ......................... ",
"...XXXXXXXXXXXXXXXXXXXXX.oo",
"..XXOOOOXOOOOXXOOOXOOOOOXoo",
"..XXOXXXXXOXXOXXOXXXXOXXXoo",
"..XXOXXXXXOXXOXXOXXXXOXXXoo",
"..XXOOOXXXOXXOXXOXXXXOXXXoo",
"..XXOXXXXXOXXOXXOXXXXOXXXoo",
"..XXOXXXXXOXXOXXOXXXXOXXXoo",
"..XXOXXXXXOXXOXXOXXXXOXXXoo",
"..XXOOOOXOOOOXXOOOXXXOXXXoo",
"..oXXXXXXXXXXXXXXXXXXXXXooo",
" ooooooooooooooooooooooooo ",
"  ooooooooooooooooooooooo  "};
