/* XPM */
static char * father2_xpm[] = {
/* width height num_colors chars_per_pixel */
"45 19 16 1",
/* colors */
" 	c None",
".	c #c09918",
"X	c #806610",
"o	c black",
"O	c black",
"+	c black",
"@	c black",
"#	c black",
"$	c black",
"%	c black",
"&	c #ffcb2b",
"*	c black",
"=	c black",
"-	c black",
";	c black",
":	c black",
/* pixels */
"     ....                                    ",
"   XoO+@#OX    OOOOO        O             O  ",
"  XOXXXX.$OX   O         O  O            XX  ",
" .OOOO%OOOOOX  O     O   O  O                ",
" XOXXOOOX.&O*  OOO    O OOO OOO.  OO  O.O .OO",
" XOX&&&&&&&X=  O    OOO  O  O  O O  O OO  O  ",
" XOX&&&&&&.X=  O   O  O  O  O  O OOOO O   .O.",
" XOXXX&&.XXX-  O   O  O  O  O  O O    O     O",
" X;XX-X.=XXX$  O    OO O .O O  O  OO  O   OO.",
" XO.XXX..X.XX                                ",
" XX&..X&&&&.X          OOO.                  ",
"  X..X..X..X.          O  O.                 ",
"  .oX-OX.:%X           O   O   O             ",
"  .+.X..X.XX           O   O    O  O  O      ",
"   X.@XX..O            O   O  OOO  O  O      ",
" ...%XXX.XX            O   O O  O  O  O      ",
" XOOO;.&.O             O  O. O  O  .OOO      ",
"XOOO XXOO.             OOO.   OO O   O       ",
".OO.                               OO        "};
