/* XPM */
static char * father2_xpm[] = {
/* width height num_colors chars_per_pixel */
"14 19 5 1",
/* colors */
" 	c None",
".	c #c09918",
"X	c #806610",
"o	c black",
"O	c #ffcb2b",
/* pixels */
"     ....     ",
"   XooooooX   ",
"  XoXXXX.ooX  ",
" .ooooooooooX ",
" XoXXoooX.Ooo ",
" XoXOOOOOOOXo ",
" XoXOOOOOO.Xo ",
" XoXXXOO.XXXo ",
" XoXXoX.oXXXo ",
" Xo.XXX..X.XX ",
" XXO..XOOOO.X ",
"  X..X..X..X. ",
"  .oXooX.ooX  ",
"  .o.X..X.XX  ",
"   X.oXX..o   ",
" ...oXXX.XX   ",
" Xoooo.O.o    ",
"Xooo XXoo.    ",
".oo.          "};
