/* XPM */
static char * flag_xpm[] = {
"19 13 3 1",
" 	c blue",
".	c red",
"X	c white",
"          .........",
" X X X X  XXXXXXXXX",
"          .........",
"  X X X X XXXXXXXXX",
"          .........",
" X X X X  XXXXXXXXX",
"          .........",
"XXXXXXXXXXXXXXXXXXX",
"...................",
"XXXXXXXXXXXXXXXXXXX",
"...................",
"XXXXXXXXXXXXXXXXXXX",
"..................."};
