/* XPM */
static char * forumdel_xpm[] = {
"20 20 5 1",
" 	c None",
".	c gray90",
"X	c yellow",
"o	c gray70",
"O	c red",
"  ................  ",
" .................. ",
"...XXXXXXXXXXXXXX.oo",
"..XXXXXXXXXXXXXXXXoo",
"..XXOOXXXXXXXXOOXXoo",
"..XXOOOXXXXXXOOOXXoo",
"..XXXOOOXXXXOOOXXXoo",
"..XXXXOOOXXOOOXXXXoo",
"..XXXXXOOOOOOXXXXXoo",
"..XXXXXXOOOOXXXXXXoo",
"..XXXXXXOOOOXXXXXXoo",
"..XXXXXOOOOOOXXXXXoo",
"..XXXXOOOXXOOOXXXXoo",
"..XXXOOOXXXXOOOXXXoo",
"..XXOOOXXXXXXOOOXXoo",
"..XXOOXXXXXXXXOOXXoo",
"..XXXXXXXXXXXXXXXXoo",
"..oXXXXXXXXXXXXXXooo",
" oooooooooooooooooo ",
"  oooooooooooooooo  "};
