/* XPM */
static char * scratch[] = {
"32 14 5 1",
" 	c None",
".	c gray90",
"X	c #c08000",
"o	c gray70",
"O	c #f0f000",
"  ............................  ",
" .............................. ",
"...XXXXXXXXXXXXXXXXXXXXXXXXXX.oo",
"..XOOOOXXOOXXOOOOXXOXXOXOXXXOXoo",
"..XOXXXXOXXOXOXXXOXOXXOXOOXOOXoo",
"..XOXXXXOXXOXOXXXOXOXXOXOXOXOXoo",
"..XOOOXXOXXOXOXXXOXOXXOXOXOXOXoo",
"..XOXXXXOXXOXOOOOXXOXXOXOXXXOXoo",
"..XOXXXXOXXOXOXOXXXOXXOXOXXXOXoo",
"..XOXXXXOXXOXOXXOXXOXXOXOXXXOXoo",
"..XOXXXXXOOXXOXXXOXXOOXXOXXXOXoo",
"..oXXXXXXXXXXXXXXXXXXXXXXXXXXooo",
" oooooooooooooooooooooooooooooo ",
"  oooooooooooooooooooooooooooo  "};
