/* XPM */
static char * globe_xpm[] = {
"17 17 4 1",
" 	c white",
".	c black",
"X	c blue",
"o	c cyan",
"     .......     ",
"   ..XXXXXXX..   ",
"  .oXXoXXXXXoo.  ",
" .XoooooXXXXooo. ",
" .XoooooXXXXooo. ",
".XXooooXXXXXXXXX.",
".XoXoooXXXXXXoXX.",
".XXXXooXXXXXXooo.",
".XXXXXooXXXXXooo.",
".XXXXXooooXXXooo.",
".XXXXXooooXXoooo.",
".XXXXXooooXXooXo.",
" .XXXXXooXXXXoo. ",
" .XXXXXooXXXXXX. ",
"  .XXXXoXXXXXX.  ",
"   ..XXXXXXX..   ",
"     .......     "};
