/* XPM */
static char * heart_xpm[] = {
"26 16 7 1",
" 	c None",
".	c white",
"X	c pink",
"o	c pink1",
"O	c pink2",
"+	c pink3",
"@	c black",
"        ...    ...        ",
"       .XXX.  .XXX..      ",
"      .XooO+..XoooO.      ",
"     .Xoo@@@++ooo@@+.     ",
"     .Xooo@oOOoooo@+.     ",
"    ..Xooo@@@@@@@@O+..    ",
"   .@@@oo@o@oooo@o@@@@.   ",
"  .@..X@@ooo@oo@oO@+..@.  ",
" .@.  .@@ooo@oo@o@+@. .@. ",
".@.  .@oo@oo@@@o@O+@.  .@.",
".@. .@@@@@@@@@@o@+..@. .@.",
".@.  ....@oo@@@O@.  .  .@.",
" .@.   .@.ooooO+.@.   .@. ",
"  .@...@. .ooO+. .@...@.  ",
"   .@@@.   .++.   .@@@..  ",
"    ...     ..     ...    "};
