/* XPM */
static char *t2juneteenth_xpm[] = {
"18 18 16 1",
"0	c #000000",
"1	c #111111",
"2	c #222222",
"3	c #333333",
"4	c #444444",
"5	c #555555",
"6	c #666666",
"7	c #777777",
"8	c #888888",
"9	c #999999",
"A	c #AAAAAA",
"B	c #BBBBBB",
"C	c #CCCCCC",
"D	c #DDDDDD",
"E	c #EEEEEE",
"F	c #FFFFFF",
"FFFFFFFAA2BFFFFFFF",
"FFFFF26280222CFFFF",
"FFF002346233220FFF",
"FF30103254012111FF",
"FF000101B5000011FF",
"F3355BB8D86A20154F",
"FDBC89977A8D998BEF",
"F8866635594093141F",
"F0111113562000011E",
"F0001633221300000F",
"F3110365202440011F",
"F4221654215665016F",
"F7327781342264204F",
"FF13662543531420FF",
"FFF040000110011EFF",
"FFFF0210011000FFFF",
"FFFFF81000005FFFFF",
"FFFFFFFEFFEFFFFFFF"
};
