#define kite_width 16
#define kite_height 16
static unsigned char kite_bits[] = {
   0x55, 0x55, 0x00, 0x0a, 0x01, 0x31, 0x80, 0x40, 0x41, 0x80, 0x40, 0x84,
   0x81, 0x44, 0x80, 0x42, 0x01, 0x21, 0x80, 0x21, 0x41, 0x12, 0x20, 0x14,
   0x11, 0x0c, 0x0c, 0x08, 0x03, 0x00, 0x00, 0x00};
