/* XPM */
static char *kite[] = {
/* width height num_colors chars_per_pixel */
"    18    16        6            1",
/* colors */
". c None",
"# c #000000",
"R c #ff8080",
"r c #c06060",
"g c #808080",
"b c #d0d8ff",
/* pixels */
"........b.bbb.b.b.",
".....b.b.bbrbb.b..",
"....b.b.bbrRrbb.b.",
"..b..b.bbrRRRrrb.b",
"....b.bbrRRRRrrrbb",
"..b..bbrRRRRrrrrrb",
"b...b.brRRRgrrrrrb",
"...b.b.brRrgrrrrbb",
"..b...bbrrgrrrrrb.",
"....b..bbgrrrrrb.b",
"......b.grrrrrrbb.",
"....b..g.brrrrbb..",
".....gg.b.brrrb.b.",
"....g....bbrrb.b..",
"..gg...b..bbrbb.b.",
"gg.......b.bbb...."
};
