/* XPM */
static char * lock_xpm[] = {
"16 16 3 1",
" 	c None",
".	c black",
"X	c white",
"      ......    ",
"    .........   ",
"    ..     ..   ",
"    ..     ..   ",
"    ..     ..   ",
"    ..     ..   ",
"                ",
"   ...........  ",
"   .....X.....  ",
"   ....XXX....  ",
"   ....XXX....  ",
"   .....X.....  ",
"   .....X.....  ",
"   ...........  ",
"   ...........  ",
"   ...........  "};
