/* XPM */
static char *pinktri[] = {
/* width height num_colors chars_per_pixel */
"    16    14        5            1",
/* colors */
". c None",
"# c #000000",
"g c #808080",
"p c hot pink",
"P c #aa828e",
/* pixels #ffb0c8*/
".......##.......",
"......gPPg......",
"......#pp#......",
".....gPppPg.....",
".....#pppp#.....",
"....gPppppPg....",
"....#pppppp#....",
"...gPppppppPg...",
"...#pppppppp#...",
"..gPppppppppPg..",
"..#pppppppppp#..",
".gPppppppppppPg.",
".#pppppppppppp#.",
"################"
};
