/* XPM */
static char *trimet[] = {
/* width height num_colors chars_per_pixel */
"    52    16       27            1",
/* colors */
". c #f8fcf8",
"# c #f05018",
"a c #b8bcb8",
"b c #f8f4c8",
"c c #f8f0b0",
"d c #f8fcf0",
"e c #f8f4e8",
"f c #f8ec98",
"g c #506498",
"h c #183078",
"i c #8898b0",
"j c #c0c8d8",
"k c #b8ac80",
"l c #b8b4a8",
"m c #f8dcc8",
"n c #f07840",
"o c #405088",
"p c #f09460",
"q c #7084a8",
"r c #f0ac80",
"s c #d0d4d8",
"t c #a0a8c0",
"u c #f8c098",
"v c #e0e0e0",
"w c #f8e8d8",
"x c #f8ccb0",
"y c #d0c4b8",
/* pixels */
"aaaaaaaaaaaaaaaaaaaaaaaaaaaaaaaaaaaaaaaaaaaaaaaaaaaa",
"a......dxuxme..............ddddddddddeeeeebebbbbbcca",
"a.....p######u............ddddddddddeeeeebebbbbbcbca",
"a....p###nn###x............ddddddddddeeeeebebbbbbcca",
"a...p##pwuxwp##x..........ddddddddddeeeeebebbbbbcbca",
"a..x##r.n##p.p#n..gggggg...thdtgtdddggeeeebebbbbbcca",
"a..p#nwu#rmm.u##x.jjoojj..djq.qhoddahhseeebebqqbcbca",
"a..n#uduxmep#wn#p...gg.sgqhqgdgghsdqghjeqhoibiogtcca",
"a..n#mr.w#pw#pw#n...gg.jhgjqgdgioqehthjiovshyiqlmcca",
"a..n#m#p.xe.#n.#p...gg.vhe.ig.oitothdhighhhhaiibbcca",
"a..p#wn#npxw#rm#m...gg..h..tgdhjvhoqdgigiebbbiicbcca",
"a..x#p.unr.nr.#n....gg.jh..igdhjdghjdgiqoveamigmcbca",
"a...p#pruruurn#x....qq.sgs.tgvgsdagdeqqwqhhoslhoycca",
"a....r########m...........d..dddddddddeeeeebbbbbbbca",
"a.....xunnnprw.............dddddddddeeeeebebbbbbccca",
"aaaaaaaaaaaaaaaaaaaaaaaaaaaaaaaaaaaaaaaaaaaaaaaaaaaa"
};
