/* XPM */
static char * trimetrose_xpm[] = {
/* width height num_colors chars_per_pixel */
"16 16 23 1",
/* colors */
" 	c None",
".	c #f88c68",
"X	c #f85028",
"o	c #f83400",
"O	c #f83408",
"+	c #f86848",
"@	c #f03400",
"#	c #f8ac98",
"$	c #f8fcf8",
"%	c #f0c4b0",
"&	c #f88870",
"*	c #f8f0e8",
"=	c #f88868",
"-	c #f8d4c8",
";	c #f06c40",
":	c #f8d8c8",
">	c #f86840",
",	c #f8e0d8",
"<	c #f8c4b0",
"1	c #f8c4b8",
"2	c #f86c40",
"3	c #f8f0e0",
"4	c #f08c68",
/* pixels */
"     .XoOX.     ",
"   +@@@ooO@o.   ",
"  Oooo#$$%oOoX  ",
" +ooo$$&&*$ooO= ",
" ooo%$oOoo-$oo@ ",
".ooO$XoX$$$$ooO=",
";oo:$O&$$:&$$OOO",
"oOX$$#$>o$oo$&o@",
"oo%,+$$@O$#o#$Oo",
"X@<1O=$$$$%o.$oo",
".o=$oOO;2$>o31O&",
" Oo$*OO@3$O1$OO ",
" .oo$$$$$$$$oO+ ",
"  XoOOoooX@ooO  ",
"   4oOooOOO@>   ",
"     Xo@o@+     "};
