/* XPM */
static char *ufo[] = {
/* width height num_colors chars_per_pixel */
"    19    14        8            1",
/* colors */
". c None",
"# c #000000",
"l c #c0c0c0",
"g c #a0a0a0",
"d c #808080",
"w c #ffffff",
"s c #505050",
"r c #ff40a0",
/* pixels */
"...................",
"........dds........",
".......dww.#.......",
"......s.w...#......",
"......#.....#......",
"...gllllggggddds...",
"..llllllgggggdddd..",
".llllllgggggggdddd.",
"dddddddddddssssssss",
"..ggggggggggddddd..",
"...ggggggggggddd...",
".....rr.rrr.rr.....",
".....rw.rww.rw.....",
".....w...w..w......",
};
