#define ufo_width 19
#define ufo_height 14
static unsigned char ufo_bits[] = {
   0x55, 0x55, 0x05, 0x00, 0x07, 0x00, 0x81, 0x08, 0x00, 0x40, 0x10, 0x00,
   0x41, 0x10, 0x00, 0xf8, 0xff, 0x00, 0x05, 0x00, 0x01, 0x02, 0x00, 0x02,
   0xff, 0xff, 0x07, 0x04, 0x00, 0x01, 0xf9, 0xff, 0x00, 0x00, 0x00, 0x00,
   0x01, 0x00, 0x00, 0x00, 0x00, 0x00};
