/* XPM */
static char * unlock_xpm[] = {
"16 16 3 1",
" 	c None",
".	c #800000",
"X	c white",
" ......         ",
"........        ",
"..    ..        ",
"..    ..        ",
"..    ..        ",
"..    ..        ",
"                ",
"     ...........",
"     .....X.....",
"     ....XXX....",
"     ....XXX....",
"     .....X.....",
"     .....X.....",
"     ...........",
"     ...........",
"     ..........."};
