/* XPM */
static char * wintersolstice_xpm[] = {
"17 17 7 1",
" 	c None",
".	c red",
"X	c blue",
"o	c dark blue",
"O	c cyan",
"+	c dark cyan",
"@	c skyblue",
"          ..     ",
"     XXXXooo     ",
"   OXXOXoooo++   ",
"  XOOOO@Xooo+++  ",
"  XOOOO@oooo+++  ",
" XXOOOOXXooooooo ",
" XOXOOOXooooo+oo ",
" XXXXOOXXoooo+++ ",
" XXXXXO@ooooo+++ ",
" XXXXXO@@+ooo+++ ",
" XXXXXO@@+oo++++ ",
" XXXXXO@@+oo++o+ ",
"  XXXXX@@oooo++  ",
"  XXXXX@@oooooo  ",
"   XXXX@Xooooo   ",
"     XXXoooo     ",
"     ..          "};
