/* XPM */
static char * zoobomb_xpm[] = {
/* width height num_colors chars_per_pixel */
"110 128 3 1",
/* colors */
" 	c None",
".	c black",
"X	c white",
/* pixels */
"                                                                                                              ",
"                                                                                                              ",
"                                                                                                              ",
"                                                                                                              ",
"                                                                              .                               ",
"                                                                              ..                              ",
"                                                                              ..                              ",
"                                                                              ..                              ",
"                                                                             ....       .                     ",
"                                                                              ...     ...                     ",
"                                                                        ..   ..X..   ....                     ",
"                                                                         ..  ..XX.  ....                      ",
"                                                                        ....  .XX....X..                      ",
"                                                                        ..X....XXX..XX.     .  .              ",
"                                                                        ..XX..XXXXXXXX.........               ",
"                                                                        ..XXX.XXXXXXX..X..X...                ",
"                                                                  .  .   .XXXXXXXXXXXXXXXX..                  ",
"                                                                   .......XXXXXXXXX.XXXXXX.                   ",
"                                                                    ....XXXXXXXX....XXXXX.....                ",
"                                                                     ...XXXXXX......XXXXXXX.......            ",
"                                                                  ......XXXXXX......XXXXXXXXX....             ",
"                                                                   ..X.XXXXXXX....XXXXXXXXX...                ",
"                                                                   ...XXXXXXX....XXXXXXX...                   ",
"                                                                     ..XXXXXXX...XXXXXXXX...                  ",
"                                                                      ...XXXX....XXXXXXXXX...     .           ",
"                                                                      ..........XXXXXXXXX......               ",
"                                                                      ..........XXXXX.......                  ",
"                                                  . . ..... .        ..........XXXXXXX..                      ",
"                                          . .....................   ..............X.XX..                      ",
"                                       ...................................................                    ",
"                                      .............................................   . ..                    ",
"                                   ...............................................                            ",
"                               ...................................................                            ",
"                               ..................................................                             ",
"                             ....................................................                             ",
"                            .....................................................                             ",
"                          ........................................................                            ",
"                        ............................................................                          ",
"                       ..............................................................                         ",
"                      ................................................................                        ",
"                    ....................................................................                      ",
"                   ......................................................................                     ",
"                   .......................................................................                    ",
"                  ........................................................................                    ",
"                 ..........................................................................                   ",
"                ............................................................................                  ",
"               ..............................................................................                 ",
"              ................................................................................                ",
"              .......................................................X........................                ",
"             .......................................................X..........................               ",
"             ....................XX...X........................X................................              ",
"            ....................X.........................XXXXXXX...............................              ",
"            ....................X.....XXXXXXXXXXXXXXXXXXXXXXXXXXX................................             ",
"           ...........................XXXXXXXXXXXXXXXXXXXXXXXXXXXX...............................             ",
"           ...........................XXXXXXXXXXX.X..XXX..XXXXXXXXX...............................            ",
"          ............................XXX......................XXXX...............................            ",
"          .............................XX......................XXXX................................           ",
"         .............................XX.............X..........XXX................................           ",
"         .............................XXX.....XXXXXXXXXXXX.....XXXX................................           ",
"        ..............................XXX.....XXXXXXXXXXXX......XXX.................................          ",
"        ...............................XX.....XXXXXXXXXXX......XXXX.................................          ",
"        ...............................XX....XXXXXXX..XXX......XXXX..................................         ",
"       ................................XX....XXXX.....XXX......XXXX..................................         ",
"       ................................XX....XXXX.....XX......XXXX...................................         ",
"       ................................XXX..XXXXX....XX.......XXXX...................................         ",
"       .................................XXXXXXXX.....XX......XXXX....................................         ",
"      ..................................XXXXXXXX....X.X......XXX......................................        ",
"       ..................................XXXXXXX...X........XXXX......................................        ",
"      .....................................X.......X........XXX.......................................        ",
"       ...........................................X........XXXX.......................................        ",
"      ............................................X.......XXXX........................................        ",
"      ...........................................X........XXXX........................................        ",
"      ..........................................XX.......XXXX.........................................        ",
"      ..........................................X........XXX..........................................        ",
"      .........................................X........XXXX...........................................       ",
"      ........................................XX.......XXXXX...........................................       ",
"      ........................................X........XXXX...........................................        ",
"      .......................................XX.......XXXX.............................................       ",
"       ......................................X........XXXX............................................        ",
"      ......................................XX.......XXXX.............................................        ",
"       .....................................X.......XXX..........X....................................        ",
"       ....................................X........XXX......XXX.XXX..................................        ",
"       ...................................XX.......XXX...........XXX..................................        ",
"       ...................................X........XXX......X.....XXX.................................        ",
"       ..................................XX.......XXX.............XXX................................         ",
"       .................................XX.......XXXX.......X.....XXX................................         ",
"        ................................XX.......XXXX......X......XXX................................         ",
"        ................................XXX.....XXXXXXXXXXXX......XXXX...............................         ",
"        ................................XX......X.XX..............XXX................................         ",
"        ...............................XXX........................XXXX..............................          ",
"         ..............................XXX........................XXX...............................          ",
"          .............................XXX........................XXX..............................           ",
"          .............................XXXX.....X.....X.XXXXXXXXXXXXXX.............................           ",
"          .............................XXXXXXXXXXXXXXXXXXXXXXXXXXXXXXX............................            ",
"           ..............................XXXXXXXXXXXXXXXXXXXXXXXXXXXXX............................            ",
"           ...............................XXXXXXXXXXXXX.XX.X..X..XX...............................            ",
"            .....................................................................................             ",
"            .....................................................................................             ",
"             ...................................................................................              ",
"             ..................................................................................               ",
"              .................................................................................               ",
"               ...............................................................................                ",
"                .............................................................................                 ",
"                .............................................................................                 ",
"                 ...........................................................................                  ",
"                  .........................................................................                   ",
"                   .......................................................................                    ",
"                    .....................................................................                     ",
"                    ....................................................................                      ",
"                      .................................................................                       ",
"                       ...............................................................                        ",
"                         ...........................................................                          ",
"                          .........................................................                           ",
"                            ......................................................                            ",
"                             ...................................................                              ",
"                               ................................................                               ",
"                                ..............................................                                ",
"                                   ........................................                                   ",
"                                     ...................................                                      ",
"                                        ..............................                                        ",
"                                           .  ....................                                            ",
"                                                    . .......                                                 ",
"                                                                                                              ",
"                                                                                                              ",
"                                                                                                              ",
"                                                                                                              ",
"                                                                                                              ",
"                                                                                                              "};
